<?xml version="1.0" encoding="UTF-8" standalone="no"?>
<svg
   width="25.4mm"
   height="128.5mm"
   viewBox="0 0 25.4 128.5"
   version="1.1"
   id="svg1"
   sodipodi:docname="PadX_Silk_Dark.svg"
   inkscape:version="1.4.4 (dcaf3e7, 2026-05-05)"
   xmlns:inkscape="http://www.inkscape.org/namespaces/inkscape"
   xmlns:sodipodi="http://sodipodi.sourceforge.net/DTD/sodipodi-0.dtd"
   xmlns:xlink="http://www.w3.org/1999/xlink"
   xmlns="http://www.w3.org/2000/svg"
   xmlns:svg="http://www.w3.org/2000/svg">
  <defs
     id="defs1">
    <rect
       x="55.25248"
       y="187.30589"
       width="78.699862"
       height="21.548468"
       id="rect5" />
    <rect
       x="55.25248"
       y="187.30589"
       width="78.699862"
       height="21.548468"
       id="rect1" />
    <rect
       x="55.25248"
       y="187.30589"
       width="72.380745"
       height="21.548468"
       id="rect22" />
    <linearGradient
       inkscape:collect="always"
       xlink:href="#linearGradient2"
       id="linearGradient3"
       x1="12.7"
       y1="62.123081"
       x2="12.7"
       y2="81.648079"
       gradientUnits="userSpaceOnUse"
       gradientTransform="translate(-4.9991347e-4,3.4775964)" />
    <linearGradient
       id="linearGradient2"
       inkscape:collect="always">
      <stop
         style="stop-color:#a1a1a1;stop-opacity:1;"
         offset="0"
         id="stop2" />
      <stop
         style="stop-color:#858585;stop-opacity:1;"
         offset="1"
         id="stop3" />
    </linearGradient>
    <linearGradient
       inkscape:collect="always"
       xlink:href="#linearGradient15"
       id="linearGradient12"
       gradientUnits="userSpaceOnUse"
       x1="22.133209"
       y1="18.338989"
       x2="22.302099"
       y2="0.42208433"
       gradientTransform="matrix(-0.55551016,0,0,-1.0658509,25.324435,27.609656)" />
    <linearGradient
       id="linearGradient15"
       inkscape:collect="always">
      <stop
         style="stop-color:#4a4a4a;stop-opacity:1;"
         offset="0"
         id="stop14" />
      <stop
         style="stop-color:#363636;stop-opacity:1;"
         offset="0.99244332"
         id="stop15" />
    </linearGradient>
    <linearGradient
       inkscape:collect="always"
       xlink:href="#linearGradient19"
       id="linearGradient13"
       gradientUnits="userSpaceOnUse"
       x1="21.973976"
       y1="99.944847"
       x2="21.973976"
       y2="126.96036"
       gradientTransform="matrix(0.55551016,0,0,0.35575418,-0.07348931,82.785586)" />
    <linearGradient
       id="linearGradient19"
       inkscape:collect="always">
      <stop
         style="stop-color:#363636;stop-opacity:1;"
         offset="0"
         id="stop18" />
      <stop
         style="stop-color:#212121;stop-opacity:1;"
         offset="1"
         id="stop19" />
    </linearGradient>
    <rect
       x="55.25248"
       y="187.30589"
       width="78.699862"
       height="21.548468"
       id="rect2" />
    <rect
       x="55.25248"
       y="187.30589"
       width="78.699862"
       height="21.548468"
       id="rect3" />
    <rect
       x="55.25248"
       y="187.30589"
       width="72.380745"
       height="21.548468"
       id="rect14" />
    <rect
       x="55.25248"
       y="187.30589"
       width="72.380745"
       height="21.548468"
       id="rect15" />
  </defs>
  <sodipodi:namedview
     id="namedview1"
     pagecolor="#161616"
     bordercolor="#000000"
     borderopacity="0.25"
     inkscape:showpageshadow="2"
     inkscape:pageopacity="0.0"
     inkscape:pagecheckerboard="0"
     inkscape:deskcolor="#d1d1d1"
     inkscape:document-units="mm"
     inkscape:zoom="6.6464984"
     inkscape:cx="43.406315"
     inkscape:cy="113.81933"
     inkscape:window-width="1920"
     inkscape:window-height="1009"
     inkscape:window-x="-8"
     inkscape:window-y="-8"
     inkscape:window-maximized="1"
     inkscape:current-layer="svg1"
     showguides="true">
    <sodipodi:guide
       position="-4.6575277,105.53083"
       orientation="0,-1"
       id="guide1"
       inkscape:locked="false" />
    <sodipodi:guide
       position="-6.4459965,9.0098001"
       orientation="0,1"
       id="guide2"
       inkscape:locked="false"
       inkscape:label=""
       inkscape:color="rgb(0,134,229)" />
    <sodipodi:guide
       position="8.0000001,87.816299"
       orientation="-1,0"
       id="guide3"
       inkscape:locked="false"
       inkscape:label=""
       inkscape:color="rgb(0,134,229)" />
    <sodipodi:guide
       position="17.4,86.622061"
       orientation="-1,0"
       id="guide4"
       inkscape:locked="false"
       inkscape:label=""
       inkscape:color="rgb(0,134,229)" />
  </sodipodi:namedview>
  <path
     id="path10"
     style="fill:#363636;fill-opacity:1;stroke:none;stroke-width:0.264583"
     d="M 8.6534881e-8,2.3726831 H 25.250945 V 122.67869 H 8.6534881e-8 Z" />
  <path
     id="path12"
     style="fill:url(#linearGradient13);stroke:none;stroke-width:0.264583"
     d="M 8.6534881e-8,118.13354 H 25.250945 V 128.5 H 8.6534881e-8 Z" />
  <path
     id="path11"
     style="fill:url(#linearGradient12);fill-opacity:1;stroke:none;stroke-width:0.264583"
     d="M 25.250945,27.468653 H 4.8653488e-7 V 0.13229213 H 25.250945 Z" />
  <rect
     style="fill:none;stroke:#808080;stroke-width:0.264583;stroke-dasharray:none;stroke-opacity:1"
     id="rect2-6"
     width="25.135418"
     height="128.23541"
     x="0.1322915"
     y="0.1322915" />
  <path
     id="rect43"
     style="fill:url(#linearGradient3);stroke-width:0.264583"
     d="m 4.663068,31.248593 h 16.072864 c 0.956241,0 1.726068,0.769827 1.726068,1.726068 v 84.777069 c 0,0.95624 -0.769827,1.72607 -1.726068,1.72607 H 4.663068 C 3.706827,119.4778 2.937,118.70797 2.937,117.75173 V 32.974661 c 0,-0.956241 0.769827,-1.726068 1.726068,-1.726068 z"
     sodipodi:nodetypes="sssssssss" />
  <!-- Placeholder silkscreen (dark theme): empty, no artwork yet. -->
  <text
     xml:space="preserve"
     transform="matrix(0.26458333,0,0,0.26458333,-12.330255,-44.97923)"
     id="text5"
     style="font-style:normal;font-variant:normal;font-weight:normal;font-stretch:normal;font-size:18.6667px;font-family:sans-serif;-inkscape-font-specification:sans-serif;text-align:center;writing-mode:lr-tb;direction:ltr;white-space:pre;shape-inside:url(#rect5);display:inline;fill:#ffffff;stroke:none;stroke-width:1;stroke-dasharray:none"
     x="38.400475"
     y="0"><tspan
       x="71.063818"
       y="204.29101"
       id="tspan5"><tspan
         style="font-weight:bold;-inkscape-font-specification:'sans-serif Bold'"
         id="tspan1">PadX</tspan></tspan></text>
  <path
     style="font-weight:bold;font-size:18.6667px;-inkscape-font-specification:'sans-serif Bold';text-align:center;white-space:pre;fill:#ffffff"
     d="m 76.831828,190.96298 q 2.576005,0 3.808007,1.08267 1.232003,1.064 1.232003,3.02401 0,1.176 -0.485335,2.20267 -0.485334,1.02667 -1.624003,1.66134 -1.120002,0.63466 -3.042672,0.63466 h -1.213335 v 4.72268 h -2.856005 v -13.32803 z m -0.09333,2.33334 h -1.232002 v 3.92001 h 0.952001 q 1.176003,0 1.848004,-0.46667 0.690668,-0.46667 0.690668,-1.58667 0,-0.896 -0.560001,-1.38133 -0.541335,-0.48534 -1.69867,-0.48534 z m 11.834694,0.616 q 1.904003,0 2.912005,0.91467 1.026669,0.896 1.026669,2.66934 v 6.79468 h -1.960004 l -0.541334,-1.38134 h -0.07467 q -0.672001,0.82134 -1.400003,1.19467 -0.709334,0.37334 -1.997337,0.37334 -1.344002,0 -2.240004,-0.78401 -0.896001,-0.784 -0.896001,-2.408 0,-1.58667 1.157335,-2.38934 1.157336,-0.82133 3.45334,-0.91467 l 1.69867,-0.056 v -0.31733 q 0,-0.91467 -0.429335,-1.26934 -0.410667,-0.37333 -1.138668,-0.37333 -0.690668,0 -1.41867,0.224 -0.728001,0.224 -1.437335,0.54133 l -0.821335,-1.92267 q 0.802668,-0.41066 1.829336,-0.65333 1.045336,-0.24267 2.277338,-0.24267 z m 0.07467,5.71201 q -1.344003,0.0373 -1.86667,0.42934 -0.504001,0.392 -0.504001,1.10133 0,0.65334 0.354667,0.97067 0.373334,0.29867 0.989335,0.29867 0.877335,0 1.474669,-0.52267 0.616002,-0.52267 0.616002,-1.49334 v -0.84 z m 9.893368,4.85335 q -1.69867,0 -2.762672,-1.32534 -1.064002,-1.344 -1.064002,-3.93867 0,-2.63201 1.082669,-3.95734 1.082669,-1.34401 2.837339,-1.34401 1.082668,0 1.754672,0.42934 0.672,0.42933 1.10133,1.064 h 0.0933 q -0.056,-0.336 -0.112,-0.93334 -0.0373,-0.616 -0.0373,-1.12 v -3.248 h 2.83734 v 14.18669 h -2.16534 l -0.56,-1.32534 h -0.112 q -0.392,0.63467 -1.08267,1.08267 -0.690664,0.42934 -1.810666,0.42934 z m 0.989335,-2.25868 q 1.138671,0 1.605341,-0.65333 0.46666,-0.672 0.48533,-2.03467 v -0.29867 q 0,-1.47467 -0.448,-2.25867 -0.448,-0.784 -1.661338,-0.784 -0.914668,0 -1.437335,0.784 -0.504001,0.784 -0.504001,2.27734 0,1.49333 0.504001,2.24 0.522667,0.728 1.456002,0.728 z m 18.536031,2.07201 h -3.28534 l -2.94934,-4.79734 -2.968,4.79734 h -3.17334 l 4.42401,-6.86935 -4.16268,-6.45868 h 3.17334 l 2.74401,4.55468 2.688,-4.55468 h 3.19201 l -4.18134,6.62668 z"
     id="text1"
     transform="matrix(0.26458333,0,0,0.26458333,-12.330255,-44.97923)"
     aria-label="PadX" />
  <g
     id="g53"
     style="opacity:0.25;stroke-width:1.13257"
     transform="matrix(0.88284412,0,0,0.88305455,0.56813539,117.07556)">
    <path
       id="rect52"
       style="fill:none;fill-opacity:0.328639;stroke:#999999;stroke-width:0.299658;stroke-opacity:1"
       d="M 9.6572914,3.5057292 H 17.826302 V 12.170833 H 9.6572914 Z" />
    <path
       d="m 24.32468,36.381343 -1.173331,-3.583994 h -5.375992 l -1.173331,3.583994 h -3.519995 l 5.354658,-15.295976 h 4.010661 l 5.397325,15.295976 z m -2.986662,-9.621318 q -0.08533,-0.32 -0.277333,-0.959999 -0.170666,-0.639999 -0.341332,-1.301331 -0.170667,-0.682665 -0.277333,-1.109331 -0.08533,0.490665 -0.256,1.130664 -0.149333,0.618666 -0.298666,1.237332 -0.149333,0.597332 -0.256,1.002665 l -1.087998,3.306661 h 3.861327 z m 11.285304,9.621318 H 29.401994 V 20.168035 h 3.221328 z"
       id="text50"
       style="font-weight:bold;font-size:21.3333px;-inkscape-font-specification:'sans-serif Bold';white-space:pre;fill:#808080;stroke-width:0.951094"
       transform="matrix(0.31506733,0,0,0.31506733,6.420564,-1.8076153)"
       aria-label="Al" />
    <path
       style="font-size:5.33333px;-inkscape-font-specification:sans-serif;letter-spacing:-0.22px;white-space:pre;fill:#808080;stroke-width:1.13257"
       d="M 15.988696,21.823368 15.53003,20.644702 h -1.509333 l -0.453333,1.178666 H 13.082031 L 14.57003,17.99937 h 0.432 l 1.482666,3.823998 z m -1.029333,-2.757332 q -0.016,-0.04267 -0.05333,-0.154666 -0.03733,-0.112 -0.07467,-0.229334 -0.032,-0.122666 -0.05333,-0.186666 -0.03733,0.165333 -0.08533,0.325333 -0.048,0.154667 -0.08,0.245333 l -0.432,1.152 h 1.205333 z m 2.233332,2.757332 h -0.469333 v -4.053331 h 0.469333 z m 3.075995,-2.858665 v 2.858665 h -0.384 l -0.06933,-0.378667 h -0.02133 q -0.138667,0.224 -0.384,0.330667 -0.245333,0.101333 -0.522667,0.101333 -0.517333,0 -0.778666,-0.245333 -0.261333,-0.250667 -0.261333,-0.794666 v -1.871999 h 0.474666 v 1.839999 q 0,0.682666 0.634667,0.682666 0.474666,0 0.655999,-0.266666 0.186667,-0.266667 0.186667,-0.768 v -1.487999 z m 3.822664,-0.05333 q 0.485333,0 0.725333,0.250666 0.24,0.245333 0.24,0.8 v 1.861332 h -0.464 v -1.839999 q 0,-0.677333 -0.581333,-0.677333 -0.415999,0 -0.597333,0.24 -0.175999,0.24 -0.175999,0.698666 v 1.578666 h -0.464 v -1.839999 q 0,-0.677333 -0.586666,-0.677333 -0.432,0 -0.597333,0.266667 -0.165334,0.266666 -0.165334,0.767999 v 1.482666 h -0.469333 v -2.858665 h 0.378667 l 0.06933,0.389333 h 0.02667 q 0.133333,-0.224 0.357333,-0.330666 0.229333,-0.112 0.485333,-0.112 0.671999,0 0.874666,0.479999 h 0.02667 q 0.144,-0.245333 0.389333,-0.362666 0.250666,-0.117333 0.527999,-0.117333 z m 1.870663,-1.018666 q 0.106667,0 0.186667,0.07467 0.08533,0.06933 0.08533,0.224 0,0.149333 -0.08533,0.224 -0.08,0.07467 -0.186667,0.07467 -0.117333,0 -0.197333,-0.07467 -0.08,-0.07467 -0.08,-0.224 0,-0.154667 0.08,-0.224 0.08,-0.07467 0.197333,-0.07467 z m 0.229334,1.071999 v 2.858665 h -0.469334 v -2.858665 z m 2.062661,-0.05333 q 0.512,0 0.773333,0.250666 0.261333,0.245333 0.261333,0.8 v 1.861332 h -0.464 v -1.829332 q 0,-0.688 -0.639999,-0.688 -0.474667,0 -0.656,0.266667 -0.181333,0.266666 -0.181333,0.767999 v 1.482666 h -0.469333 v -2.858665 h 0.378666 l 0.06933,0.389333 h 0.02667 q 0.138667,-0.224 0.384,-0.330666 0.245333,-0.112 0.517333,-0.112 z m 1.94,-1.018666 q 0.106667,0 0.186666,0.07467 0.08533,0.06933 0.08533,0.224 0,0.149333 -0.08533,0.224 -0.08,0.07467 -0.186666,0.07467 -0.117333,0 -0.197333,-0.07467 -0.08,-0.07467 -0.08,-0.224 0,-0.154667 0.08,-0.224 0.08,-0.07467 0.197333,-0.07467 z m 0.229333,1.071999 v 2.858665 h -0.469333 v -2.858665 z m 3.075993,0 v 2.858665 h -0.383999 l -0.06933,-0.378667 h -0.02133 q -0.138667,0.224 -0.384,0.330667 -0.245333,0.101333 -0.522666,0.101333 -0.517333,0 -0.778666,-0.245333 -0.261333,-0.250667 -0.261333,-0.794666 v -1.871999 h 0.474666 v 1.839999 q 0,0.682666 0.634666,0.682666 0.474667,0 0.656,-0.266666 0.186666,-0.266667 0.186666,-0.768 v -1.487999 z m 3.822665,-0.05333 q 0.485333,0 0.725333,0.250666 0.24,0.245333 0.24,0.8 v 1.861332 h -0.464 v -1.839999 q 0,-0.677333 -0.581333,-0.677333 -0.416,0 -0.597333,0.24 -0.176,0.24 -0.176,0.698666 v 1.578666 h -0.464 v -1.839999 q 0,-0.677333 -0.586666,-0.677333 -0.432,0 -0.597333,0.266667 -0.165333,0.266666 -0.165333,0.767999 v 1.482666 h -0.469333 v -2.858665 h 0.378666 l 0.06933,0.389333 h 0.02667 q 0.133333,-0.224 0.357333,-0.330666 0.229334,-0.112 0.485333,-0.112 0.672,0 0.874666,0.479999 h 0.02667 q 0.144,-0.245333 0.389333,-0.362666 0.250667,-0.117333 0.528,-0.117333 z"
       id="text52"
       transform="matrix(0.26458333,0,0,0.26458333,6.9961662,5.4523307)"
       aria-label="Aluminium" />
  </g>
  <text
     xml:space="preserve"
     transform="matrix(0.26458333,0,0,0.26458333,-16.260632,-21.83795)"
     id="text1-8"
     style="font-style:normal;font-variant:normal;font-weight:normal;font-stretch:normal;font-size:12px;font-family:sans-serif;-inkscape-font-specification:sans-serif;text-align:center;writing-mode:lr-tb;direction:ltr;white-space:pre;shape-inside:url(#rect14);display:inline;fill:#ffffff;stroke:none;stroke-width:1;stroke-dasharray:none"
     x="38.400475"
     y="0"><tspan
       x="82.646374"
       y="198.22514"
       id="tspan6">1-8</tspan></text>
  <text
     xml:space="preserve"
     transform="matrix(0.26458333,0,0,0.26458333,-6.8011742,-21.83795)"
     id="text14"
     style="font-style:normal;font-variant:normal;font-weight:normal;font-stretch:normal;font-size:12px;font-family:sans-serif;-inkscape-font-specification:sans-serif;text-align:center;writing-mode:lr-tb;direction:ltr;white-space:pre;shape-inside:url(#rect15);display:inline;fill:#ffffff;stroke:none;stroke-width:1;stroke-dasharray:none"
     x="38.400475"
     y="0"><tspan
       x="79.214371"
       y="198.22514"
       id="tspan7">9-16</tspan></text>
  <path
     d="M 6.7333399,30.609118 H 6.46029 v -1.584325 q 0,-0.136525 0.00317,-0.219075 0.00318,-0.08255 0.00953,-0.17145 -0.0508,0.0508 -0.092075,0.08573 -0.041275,0.03493 -0.1047751,0.0889 l -0.2413,0.19685 -0.1460499,-0.187325 0.6127749,-0.47625 h 0.231775 z m 0.8159766,-0.727075 v -0.24765 h 0.76835 v 0.24765 z m 1.8002267,-1.571625 q 0.29845,0 0.48895,0.1397 0.1904998,0.1397 0.1904998,0.403225 0,0.136525 -0.060325,0.238125 -0.05715,0.1016 -0.155575,0.180975 -0.098425,0.0762 -0.2159,0.136525 0.1397,0.06668 0.254,0.1524 0.1143,0.08255 0.1809748,0.193675 0.06985,0.111125 0.06985,0.2667 0,0.28575 -0.2031999,0.454025 -0.200025,0.1651 -0.53975,0.1651 -0.365125,0 -0.561975,-0.15875 -0.19685,-0.161925 -0.19685,-0.45085 0,-0.155575 0.0635,-0.269875 0.066675,-0.1143 0.174625,-0.19685 0.10795,-0.08255 0.231775,-0.1397 -0.1651,-0.09525 -0.282575,-0.2286 -0.1143,-0.136525 -0.1143,-0.346075 0,-0.174625 0.0889,-0.2921 0.0889,-0.12065 0.2413,-0.18415 0.1524,-0.0635 0.3460751,-0.0635 z m -0.00317,0.225425 q -0.174625,0 -0.288925,0.08573 -0.1111251,0.08255 -0.1111251,0.2413 0,0.117475 0.053975,0.19685 0.05715,0.07937 0.1524001,0.136525 0.09525,0.05398 0.20955,0.104775 0.1651,-0.06985 0.276225,-0.168275 0.1143,-0.09843 0.1143,-0.269875 0,-0.15875 -0.111125,-0.2413 -0.111125,-0.08573 -0.295275,-0.08573 z m -0.4730751,1.4986 q 0,0.1651 0.117475,0.276225 0.1174751,0.10795 0.3619501,0.10795 0.231775,0 0.352425,-0.10795 0.123825,-0.111125 0.123825,-0.28575 0,-0.1651 -0.130175,-0.27305 -0.130175,-0.111125 -0.346075,-0.193675 l -0.0508,-0.01905 q -0.20955,0.0889 -0.3206751,0.206375 -0.10795,0.1143 -0.10795,0.288925 z"
     id="text16"
     style="font-size:12px;-inkscape-font-specification:sans-serif;text-align:center;white-space:pre;fill:#ffffff;stroke-width:0.264583"
     aria-label="1-8" />
  <path
     d="m 15.808623,29.310543 q 0,0.244475 -0.04445,0.4826 -0.04127,0.23495 -0.155575,0.428625 -0.111125,0.1905 -0.3175,0.3048 -0.2032,0.1143 -0.523875,0.1143 -0.0635,0 -0.149225,-0.0095 -0.08255,-0.0064 -0.136525,-0.02223 v -0.238125 q 0.123825,0.04128 0.2794,0.04128 0.22225,0 0.365125,-0.07303 0.14605,-0.07303 0.231775,-0.19685 0.08573,-0.127 0.123825,-0.2921 0.0381,-0.168275 0.04445,-0.352425 h -0.01905 q -0.06985,0.10795 -0.2032,0.187325 -0.130175,0.0762 -0.33655,0.0762 -0.2921,0 -0.473075,-0.1778 -0.1778,-0.180975 -0.1778,-0.508 0,-0.238125 0.0889,-0.409575 0.09208,-0.17145 0.254,-0.263525 0.161925,-0.09208 0.381,-0.09208 0.2159,0 0.390525,0.111125 0.174625,0.10795 0.276225,0.3302 0.1016,0.219075 0.1016,0.5588 z m -0.76835,-0.765175 q -0.19685,0 -0.32385,0.130175 -0.123825,0.130175 -0.123825,0.396875 0,0.219075 0.104775,0.346075 0.10795,0.123825 0.3302,0.123825 0.1524,0 0.263525,-0.06033 0.111125,-0.0635 0.17145,-0.15875 0.0635,-0.09525 0.0635,-0.19685 0,-0.136525 -0.05397,-0.269875 -0.05398,-0.13335 -0.161925,-0.22225 -0.10795,-0.0889 -0.269875,-0.0889 z m 1.060452,1.336675 v -0.24765 h 0.76835 v 0.24765 z m 2.022476,0.727075 h -0.27305 v -1.584325 q 0,-0.136525 0.0032,-0.219075 0.0032,-0.08255 0.0095,-0.17145 -0.0508,0.0508 -0.09208,0.08573 -0.04127,0.03493 -0.104775,0.0889 l -0.2413,0.19685 -0.14605,-0.187325 0.612775,-0.47625 h 0.231775 z m 0.863602,-0.968375 q 0,-0.244475 0.04127,-0.479425 0.04445,-0.238125 0.155575,-0.428625 0.1143,-0.193675 0.3175,-0.307975 0.2032,-0.1143 0.523875,-0.1143 0.06668,0 0.14605,0.0064 0.08255,0.0064 0.13335,0.02222 v 0.238125 q -0.05715,-0.01905 -0.130175,-0.02858 -0.06985,-0.0095 -0.142875,-0.0095 -0.219075,0 -0.365125,0.07303 -0.14605,0.07303 -0.231775,0.200025 -0.08255,0.127 -0.12065,0.2921 -0.0381,0.1651 -0.04763,0.352425 h 0.01905 q 0.07303,-0.111125 0.2032,-0.187325 0.130175,-0.07937 0.333375,-0.07937 0.295275,0 0.47625,0.180975 0.180975,0.1778 0.180975,0.508 0,0.3556 -0.19685,0.5588 -0.193675,0.2032 -0.523875,0.2032 -0.2159,0 -0.390525,-0.10795 -0.174625,-0.10795 -0.2794,-0.3302 -0.1016,-0.22225 -0.1016,-0.561975 z m 0.76835,0.765175 q 0.200025,0 0.32385,-0.127 0.123825,-0.130175 0.123825,-0.40005 0,-0.2159 -0.111125,-0.3429 -0.10795,-0.127 -0.327025,-0.127 -0.149225,0 -0.26035,0.0635 -0.111125,0.06033 -0.174625,0.155575 -0.06033,0.09525 -0.06033,0.19685 0,0.136525 0.05398,0.27305 0.05398,0.13335 0.161925,0.22225 0.10795,0.08573 0.269875,0.08573 z"
     id="text17"
     style="font-size:12px;-inkscape-font-specification:sans-serif;text-align:center;white-space:pre;fill:#ffffff;stroke-width:0.264583"
     aria-label="9-16" />
</svg>
